# xmcd
#
# Track frame offsets:
#	150
#	13804
#	24116
#	34946
#	46277
#	60091
#	74059
#	86019
#	96737
#	110974
#	122244
#	135812
#	150856
#	163514
#
# Disc length: 2367 seconds
# Revision: 0
# Processed by: cddbd v1.5.2PL0 Copyright (c) Steve Scherf et al.
# Submitted via: dBpowerAMP V12.0
#
DISCID=b3093d0e
DTITLE=Nat King Cole - Nat King Cole
DYEAR=1900
DGENRE=
TTITLE0=For sentimental reasons
TTITLE1=When a take my sugar to tea
TTITLE2=Jumpin´ at capitol
TTITLE3=Straighteen up and fly right
TTITLE4=I just can´t see for lookin´
TTITLE5=Sweet Lorraine
TTITLE6=Naughty Angeline
TTITLE7=Little girl
TTITLE8=I´m in the mood for love
TTITLE9=Too marvelous for words
TTITLE10=I miss you so
TTITLE11=Embraceable you
TTITLE12=Nature boy
TTITLE13=There i´ve said it again
EXTD=
EXTT0=
EXTT1=
EXTT2=
EXTT3=
EXTT4=
EXTT5=
EXTT6=
EXTT7=
EXTT8=
EXTT9=
EXTT10=
EXTT11=
EXTT12=
EXTT13=
PLAYORDER=
